<svg xmlns="http://www.w3.org/2000/svg" viewBox="0 0 1248 164"><g fill="none" fill-rule="evenodd"><path fill="#000" d="M224.4 130c-1.6 0-3-.6-4.1-1.7a5.6 5.6 0 0 1-1.7-4.1V38.9c0-1.6.5-3 1.7-4.1a5.6 5.6 0 0 1 4.1-1.7h24a27.9 27.9 0 0 1 24 13.5c2.4 4.1 3.6 8.6 3.6 13.6a22 22 0 0 1-8.4 17.2 23 23 0 0 1 10.7 8.9 26 26 0 0 1 3.8 14.2 29.5 29.5 0 0 1-29.7 29.5h-28zm22.8-57.7a12 12 0 0 0 8.8-3.6 11.3 11.3 0 0 0 0-16.8 12.5 12.5 0 0 0-8.8-3.5h-12.4v23.9h12.4zm4.6 42.3a13.7 13.7 0 0 0 14-14.1 13 13 0 0 0-4-9.7c-2.7-2.6-6-3.9-10-3.9h-17v27.7h17zM294 130a2.8 2.8 0 0 1-2.9-2.8v-10a2.8 2.8 0 0 1 2.9-3h10.3V67.8h-11.7a2.8 2.8 0 0 1-2.8-2.9v-9.6a2.8 2.8 0 0 1 2.8-2.9h21c1.7 0 3 .6 4.2 1.7a5.6 5.6 0 0 1 1.7 4.2V63l7.3-5.9a32 32 0 0 1 7-4.5c2-.9 4.4-1.3 7-1.3h4.3a2.8 2.8 0 0 1 2.8 2.8v10.5a2.8 2.8 0 0 1-2.8 2.8h-3.5c-2.4 0-4.4.4-6.1 1.2-1.8.9-4.4 2.7-8 5.5l-7.4 6v34h13.5a2.8 2.8 0 0 1 2.8 3v10a2.8 2.8 0 0 1-2.8 2.8H294zm92.6 1.8a31.8 31.8 0 0 1-28-15.9 30.6 30.6 0 0 1-4.3-15.8V82.3a32 32 0 0 1 32.3-31.7 31.8 31.8 0 0 1 27.9 15.8 30.6 30.6 0 0 1 4.3 15.9v17.8a32 32 0 0 1-32.3 31.7zm0-15.8a15.8 15.8 0 0 0 16-15.9V82.3c0-4.4-1.6-8.2-4.7-11.3a15.4 15.4 0 0 0-11.3-4.7c-4.5 0-8.2 1.6-11.3 4.7a15.4 15.4 0 0 0-4.7 11.3v17.8c0 4.4 1.5 8.1 4.7 11.3 3 3 6.8 4.6 11.3 4.6zm67 14.8c-2 0-3.4-1-4.1-2.8l-23.7-71.3-.3-1.2a3 3 0 0 1 1-2.3c.6-.6 1.4-.9 2.4-.9h9.5a4.3 4.3 0 0 1 4 3l16.8 54.8 15-54.8a4.3 4.3 0 0 1 4-3h9.6a4.3 4.3 0 0 1 4.1 3l16.3 54.8 15.5-54.8a4.3 4.3 0 0 1 4-3h9c1 0 1.7.3 2.4 1a3 3 0 0 1 1 2.2l-.4 1.2-22.3 71.3a4 4 0 0 1-1.6 2.1c-.7.6-1.6.8-2.6.8h-10.7a5 5 0 0 1-2.7-.8 3.7 3.7 0 0 1-1.5-2.1L483 76.6 468.7 128a4 4 0 0 1-1.6 2.1c-.7.6-1.6.8-2.6.8h-10.7zm118.7 1a43.5 43.5 0 0 1-26.2-8.7c-.4-.4-.7-.8-.8-1.4a3 3 0 0 1 0-1.7l4.6-8.6c.8-1 1.7-1.6 2.7-1.6a5 5 0 0 1 2 .5 41 41 0 0 0 9 5 26 26 0 0 0 9.1 1.6 15 15 0 0 0 8.7-2.1c2-1.4 3-3.4 3-5.8 0-2-.9-3.7-2.6-4.9-1.7-1.2-5-2.6-9.8-4.5l-4.9-1.9c-4-1.5-7.3-3.1-10.1-4.9A21.2 21.2 0 0 1 547 74c0-7.1 2.3-12.8 7-17a27.8 27.8 0 0 1 19-6.3 42.2 42.2 0 0 1 25.2 8.4c.4.4.7.9.9 1.4a3 3 0 0 1-.1 1.7c-.8 2-2.2 4.8-4 8.6-.6 1-1.5 1.5-2.6 1.5-.7 0-1.3-.2-2-.6-6.2-4-12-6-17.3-6-3 0-5.5.6-7.2 1.9a6.4 6.4 0 0 0-2.7 5.5c0 2.3 1 4.3 3 5.9 2 1.6 5.6 3.4 11 5.5 5.1 2 9.1 3.6 12 5 2.8 1.4 5.4 3.7 7.8 6.7 2.4 3 3.6 7 3.6 11.7a22 22 0 0 1-13.6 20.9c-4.3 2-9.2 3-14.7 3zm71.2-1.8a32.2 32.2 0 0 1-32.3-32.4V83a32.2 32.2 0 1 1 64.5 0v9c0 1.7-.5 3-1.7 4.2a5.6 5.6 0 0 1-4.1 1.7h-42.4v.7c0 4.4 1.5 8.2 4.7 11.3 3 3 6.8 4.7 11.3 4.7H665a2.8 2.8 0 0 1 2.9 2.8v9.8a2.8 2.8 0 0 1-2.9 2.8h-21.5zm16-46.8V82c0-4.4-1.6-8.2-4.7-11.3a15.4 15.4 0 0 0-11.3-4.7c-4.5 0-8.2 1.6-11.3 4.7a15.4 15.4 0 0 0-4.7 11.3v1.2h32zm29.1 46.8a2.8 2.8 0 0 1-2.8-2.8v-10a2.8 2.8 0 0 1 2.8-3H699V67.8h-11.6a2.8 2.8 0 0 1-2.9-2.9v-9.6a2.8 2.8 0 0 1 2.9-2.9h21c1.6 0 3 .6 4.1 1.7a5.6 5.6 0 0 1 1.7 4.2V63l7.3-5.9a32 32 0 0 1 7-4.5c2-.9 4.4-1.3 7.1-1.3h4.2a2.8 2.8 0 0 1 2.9 2.8v10.5a2.8 2.8 0 0 1-2.9 2.8h-3.5c-2.4 0-4.4.4-6.1 1.2-1.7.9-4.3 2.7-7.9 5.5l-7.4 6v34h13.4a2.8 2.8 0 0 1 2.8 3v10a2.8 2.8 0 0 1-2.8 2.8h-39.6zm87 1.8a43.5 43.5 0 0 1-26.2-8.7c-.5-.4-.8-.8-1-1.4a3 3 0 0 1 .2-1.7c.6-1.5 2.1-4.3 4.6-8.6.7-1 1.6-1.6 2.7-1.6.6 0 1.2.2 1.9.5a41 41 0 0 0 9.1 5 26 26 0 0 0 9 1.6 15 15 0 0 0 8.7-2.1c2-1.4 3-3.4 3-5.8 0-2-.9-3.7-2.6-4.9-1.7-1.2-5-2.6-9.7-4.5l-5-1.9a51.8 51.8 0 0 1-10-4.9 21.2 21.2 0 0 1-10-18.8 21.3 21.3 0 0 1 7-17c4.7-4.2 11-6.3 18.9-6.3a42.2 42.2 0 0 1 25.2 8.4c.5.4.8.9.9 1.4a3 3 0 0 1 0 1.7l-4.1 8.6c-.6 1-1.4 1.5-2.6 1.5-.6 0-1.3-.2-2-.6-6.1-4-12-6-17.3-6-3 0-5.4.6-7.2 1.9a6.4 6.4 0 0 0-2.7 5.5c0 2.3 1 4.3 3 5.9 2 1.6 5.7 3.4 11 5.5 5.2 2 9.2 3.6 12 5 2.8 1.4 5.5 3.7 7.9 6.7 2.4 3 3.5 7 3.5 11.7a22 22 0 0 1-13.6 20.9c-4.3 2-9.2 3-14.7 3zm51.7-1.8c-1.6 0-3-.6-4.1-1.7a5.6 5.6 0 0 1-1.7-4.1V41.9h-12.3a2.8 2.8 0 0 1-2.9-2.8V29a2.8 2.8 0 0 1 2.9-3H832a6 6 0 0 1 4.2 1.8 5.6 5.6 0 0 1 1.7 4.1v82.3h12.3a2.8 2.8 0 0 1 2.8 2.8v10a2.8 2.8 0 0 1-2.8 2.9h-22.8zm47.8-86.7a2.8 2.8 0 0 1-2.9-2.9V25.6a2.8 2.8 0 0 1 2.9-2.8h9.2a2.8 2.8 0 0 1 2.8 2.8v14.8a2.8 2.8 0 0 1-2.8 2.9h-9.2zm3.2 86.7c-1.9 0-3.5-.7-4.8-2a6.6 6.6 0 0 1-2-4.8V67.8h-11a2.8 2.8 0 0 1-2.8-2.8v-9.8a2.8 2.8 0 0 1 2.9-2.9H881c2 0 3.5.7 4.8 2 1.3 1.3 2 3 2 4.8v55.5h11a2.8 2.8 0 0 1 2.8 2.8v9.8a2.8 2.8 0 0 1-2.8 2.8h-20.5zm57.6 1.8A43.5 43.5 0 0 1 910 123c-.5-.4-.8-.8-.9-1.4a3 3 0 0 1 0-1.7c.7-1.5 2.2-4.3 4.7-8.6.7-1 1.6-1.6 2.7-1.6.6 0 1.2.2 1.9.5a41 41 0 0 0 9.1 5 26 26 0 0 0 9 1.6 15 15 0 0 0 8.7-2.1c2-1.4 3-3.4 3-5.8 0-2-.9-3.7-2.6-4.9-1.7-1.2-5-2.6-9.7-4.5l-5-1.9a51.8 51.8 0 0 1-10-4.9 21.2 21.2 0 0 1-10-18.8 21.3 21.3 0 0 1 7-17c4.7-4.2 11-6.3 19-6.3A42.2 42.2 0 0 1 962 59c.5.4.8.9.9 1.4a3 3 0 0 1 0 1.7l-4.1 8.6c-.6 1-1.4 1.5-2.6 1.5-.6 0-1.3-.2-2-.6-6.1-4-12-6-17.3-6-3 0-5.4.6-7.2 1.9A6.4 6.4 0 0 0 927 73c0 2.3 1 4.3 3 5.9 2 1.6 5.6 3.4 11 5.5 5 2 9 3.6 12 5 2.8 1.4 5.4 3.7 7.8 6.7 2.4 3 3.6 7 3.6 11.7a22 22 0 0 1-13.7 20.9c-4.3 2-9.2 3-14.7 3zm70.5-1.8c-7 0-12.7-2.2-17.1-6.5a23 23 0 0 1-6.6-17v-39h-9.3a2.8 2.8 0 0 1-2.9-2.8v-9.5a2.8 2.8 0 0 1 2.9-2.9h9.3V37.7a2.8 2.8 0 0 1 2.9-2.8h10.5a2.8 2.8 0 0 1 2.9 2.8v14.6h22.9a2.8 2.8 0 0 1 2.8 2.9v9.6a2.8 2.8 0 0 1-2.8 2.9h-23v38a9 9 0 0 0 2.5 6.5 8.4 8.4 0 0 0 6.3 2.5l14.2.1a2.8 2.8 0 0 1 2.8 2.9v9.5a2.8 2.8 0 0 1-2.8 2.8h-15.5zm26-33.9a2.8 2.8 0 0 1-2.8-2.8v-10a2.8 2.8 0 0 1 2.9-2.9h37a2.8 2.8 0 0 1 2.8 2.8v10a2.8 2.8 0 0 1-2.8 3h-37zm94.3 35.7A36 36 0 0 1 1091 96V67a36 36 0 0 1 35.8-35.8c5.7 0 11 1 15.9 3 4.8 2.1 9 5 12.4 9 .6.6.8 1.4.8 2.3 0 .9-.3 1.8-1 2.7l-6 6.2c-.7.7-1.5 1.1-2.2 1.1-.9 0-1.7-.4-2.4-1.2a22.8 22.8 0 0 0-17.4-7.2c-3.4 0-6.6.9-9.6 2.7a20.1 20.1 0 0 0-9.7 17.2v29a20.1 20.1 0 0 0 9.8 17.2 19 19 0 0 0 26.3-7c1.6-2.9 2.5-6.1 2.5-9.7V90H1128a2.8 2.8 0 0 1-2.8-2.9v-9.7a2.8 2.8 0 0 1 2.8-2.9h28.6c1.6 0 3 .6 4.1 1.7a5.6 5.6 0 0 1 1.7 4.2V96a36 36 0 0 1-35.6 35.8zm46-1.8a3 3 0 0 1-2.3-.9 3 3 0 0 1-1-2.2l.1-1.1 29.5-90.4a4 4 0 0 1 1.5-2.2 5 5 0 0 1 2.7-.8h10.5c1 0 1.9.3 2.7.8a4 4 0 0 1 1.5 2.2l29.4 90.4.2 1a3 3 0 0 1-1 2.3c-.6.6-1.4.9-2.3.9h-9.7c-1 0-2-.3-2.7-.9a4.3 4.3 0 0 1-1.5-2.2l-6.1-19.5h-31.7l-6.1 19.5c-.3.9-.8 1.6-1.6 2.2-.8.6-1.7.9-2.6.9h-9.5zm46.7-38l-11-36.1-11.2 36.2h22.2z"/><path fill="#FFD539" d="M31 8.6l96-7.4A26 26 0 0 1 155 27v63L0 102V42.2C0 31.2 1 27 3.1 23c2-4.1 5.1-7.4 9-9.8 4-2.4 8-3.8 19-4.6z"/><path fill="#FAA91D" d="M0 102l155-12v31L0 133z"/><path fill="#F57C00" d="M0 133l155-12v3.7a35 35 0 0 1-3.1 17c-2 4-5.1 7.4-9 9.7A35 35 0 0 1 126 156l-98 7.6a26 26 0 0 1-28-26V133z"/><circle cx="76.5" cy="82.5" r="43.5" fill="#FFF" stroke="#000" stroke-linecap="round" stroke-linejoin="round" stroke-width="4"/></g></svg>